<svg width="193" height="232" viewBox="0 0 193 232" fill="none" xmlns="http://www.w3.org/2000/svg">
<path d="M99.0684 19.3968H95.0044C95.0044 19.3968 92.3604 24.7328 92.2938 24.9315C92.2284 25.1301 95.6658 46.0635 95.6658 46.0635H99.0684C136.288 47.4715 166.136 78.1741 166.136 115.73C166.136 147.186 145.196 173.833 116.528 182.493L132.835 198.799L123.368 208.266C163.436 196.569 192.803 159.526 192.803 115.73C192.803 63.4688 150.994 20.8181 99.0684 19.3968Z" fill="#A70000"/>
<path d="M96.4017 0.000344673L63.739 32.663L96.4017 65.3243V0.000344673Z" fill="#1B1B1B"/>
<path d="M97.4029 185.398H93.7349C56.5149 183.99 26.6669 153.287 26.6669 115.731C26.6669 84.2755 47.6069 57.6288 76.2749 48.9688L59.9682 32.6622L69.4349 23.1955C29.3669 34.8928 0.000244141 71.9355 0.000244141 115.731C0.000244141 167.993 41.8096 210.643 93.7349 212.065H97.2723L100.098 205.122C100.098 205.122 104.228 195.777 104.271 195.298C104.315 194.821 97.4029 185.398 97.4029 185.398Z" fill="#A70000"/>
<path d="M96.4017 231.461L129.064 198.799L96.4017 166.137V231.461Z" fill="#1B1B1B"/>
</svg>
