<svg width="186" height="232" viewBox="0 0 186 232" fill="none" xmlns="http://www.w3.org/2000/svg">
<path d="M53.3621 121.858H132.251V66.1117C132.251 44.3624 114.557 26.6664 92.8061 26.6664C71.0568 26.6664 53.3621 44.3624 53.3621 66.1117V121.858ZM158.918 148.525H26.6954V66.1117C26.6954 29.6584 56.3528 -0.000309602 92.8061 -0.000309602C129.261 -0.000309602 158.918 29.6584 158.918 66.1117V148.525Z" fill="#A70000"/>
<path d="M92.8068 186.694C85.3721 186.694 79.3441 180.666 79.3441 173.231C79.3441 165.796 85.3721 159.77 92.8068 159.77C100.241 159.77 106.269 165.796 106.269 173.231C106.269 180.666 100.241 186.694 92.8068 186.694ZM0.00012207 231.432H185.613V115.031H0.00012207V231.432Z" fill="#1B1B1B"/>
</svg>
