<svg width="114" height="137" viewBox="0 0 114 137" fill="none" xmlns="http://www.w3.org/2000/svg">
<path d="M89.9958 0C88.1068 0 86.4078 1.148 85.7038 2.901L55.0828 79.102H54.6438L47.0098 4.157C46.7698 1.796 44.7818 0 42.4078 0H23.6918C21.4018 0 19.4558 1.676 19.1168 3.941L0.0517988 131.354C-0.366201 134.15 1.7988 136.664 4.6268 136.664H19.8388H72.9488H86.4168H89.4708C91.7608 136.664 93.7068 134.988 94.0458 132.723L113.102 5.31C113.52 2.514 111.355 0 108.528 0H89.9958ZM72.0188 116.205H28.2598C25.4328 116.205 23.2678 113.692 23.6848 110.897L34.2818 39.918H34.7208L43.3278 102.645C43.6418 104.935 45.5988 106.642 47.9108 106.642H54.6898C56.5298 106.642 58.1948 105.551 58.9298 103.864L87.0158 39.405L87.4548 39.551L76.5928 112.263C76.2548 114.528 74.3098 116.205 72.0188 116.205Z" fill="#C40000"/>
</svg>
